<?xml version="1.0" encoding="iso-8859-1"?>
<!-- Generator: Adobe Illustrator 19.0.0, SVG Export Plug-In . SVG Version: 6.00 Build 0)  -->
<svg version="1.1" id="Capa_1" xmlns="http://www.w3.org/2000/svg" xmlns:xlink="http://www.w3.org/1999/xlink" x="0px" y="0px"
	 viewBox="0 0 480 480" style="enable-background:new 0 0 480 480;" xml:space="preserve" fill="#E6713C">
<g>
	<g>
		<rect x="80" y="240" width="16" height="16"/>
	</g>
</g>
<g>
	<g>
		<rect x="128" y="240" width="16" height="16"/>
	</g>
</g>
<g>
	<g>
		<rect x="176" y="240" width="16" height="16"/>
	</g>
</g>
<g>
	<g>
		<rect x="224" y="240" width="16" height="16"/>
	</g>
</g>
<g>
	<g>
		<path d="M472,96h-88V0h-48v96h-80V32H128V16H80v16H48v180.24C19.275,222.396,0.052,249.532,0,280v8h12.32
			c-17.665,19.766-15.962,50.11,3.805,67.776c0.144,0.129,0.289,0.257,0.435,0.384C6.404,361.754,0.069,372.405,0,384
			c0.024,5.64,1.572,11.168,4.48,16H0v8c0,39.764,32.235,72,72,72h176c8.464-0.042,16.856-1.558,24.8-4.48
			c1.346,2.747,4.141,4.486,7.2,4.48h160c4.124,0.021,7.588-3.097,8-7.2l32-320c0,0,0,0,0-0.4c0-0.4,0,0,0-0.4v-48
			C480,99.582,476.418,96,472,96z M352,16h16v80h-16V16z M224,48h16v80h-16V48z M192,48h16v80h-16V48z M160,48h16v80h-16V48z
			 M128,48h16v80h-16V48z M96,32h16v96H96V32z M64,48h16v80H64V48z M64,144h176v8l5.52,56H64V144z M72,224h176
			c27.843-0.007,51.462,20.443,55.44,48H16.56C20.538,244.443,44.157,223.993,72,224z M300.24,305.28
			c-6.398,1.518-12.451,4.233-17.84,8c-12.592,9.065-29.568,9.065-42.16,0c-17.854-12.274-41.426-12.274-59.28,0
			c-12.559,9.076-29.522,9.076-42.08,0c-8.608-6.204-18.991-9.459-29.6-9.28c-10.491-0.134-20.751,3.09-29.28,9.2
			c-6.122,4.663-13.669,7.065-21.36,6.8c-7.582,0.191-15.004-2.207-21.04-6.8c-5.406-3.738-11.453-6.45-17.84-8
			C25.252,294.671,36.124,288.049,48,288h224C283.893,288.065,294.769,294.72,300.24,305.28z M16,320.8
			c4.662,1.157,9.061,3.194,12.96,6c8.64,6.192,19.053,9.42,29.68,9.2c10.519,0.151,20.809-3.073,29.36-9.2
			c6.101-4.645,13.616-7.046,21.28-6.8c7.582-0.191,15.004,2.207,21.04,6.8c8.64,6.192,19.053,9.42,29.68,9.2
			c10.6,0.203,20.982-3.024,29.6-9.2c12.592-9.065,29.568-9.065,42.16,0c17.829,12.26,41.371,12.26,59.2,0
			c3.919-2.822,8.347-4.86,13.04-6c-0.434,17.36-14.635,31.205-32,31.2H48C30.635,352.005,16.434,338.16,16,320.8z M32,368h256
			c8.837,0,16,7.163,16,16s-7.163,16-16,16H32c-8.837,0-16-7.163-16-16S23.164,368,32,368z M248,464H72
			c-27.843,0.007-51.462-20.443-55.44-48h286.88C299.463,443.557,275.843,464.007,248,464z M432.8,464H293.12
			c16.966-13.643,26.847-34.229,26.88-56v-8h-4.48c2.908-4.832,4.456-10.36,4.48-16c-0.068-11.595-6.404-22.246-16.56-27.84
			c10.059-8.703,16.056-21.189,16.56-34.48c27.438,22.283,67.745,18.103,90.027-9.335c22.282-27.438,18.103-67.744-9.335-90.027
			C389.194,212.98,374.812,207.92,360,208c-21.863,0.034-42.196,11.226-53.92,29.68c-10.673-14.691-26.504-24.807-44.32-28.32
			L256.8,160h206.4L432.8,464z M314.96,253.68c0.666-0.661,1.232-1.416,1.68-2.24c11.328-23.968,39.94-34.214,63.908-22.887
			c23.968,11.328,34.214,39.94,22.887,63.908c-11.328,23.968-39.94,34.214-63.908,22.887c-11.554-5.461-20.454-15.304-24.727-27.348
			h5.2v-8C319.982,270.989,318.272,262.061,314.96,253.68z M464,144H256v-32h208V144z"/>
	</g>
</g>
<g>
</g>
<g>
</g>
<g>
</g>
<g>
</g>
<g>
</g>
<g>
</g>
<g>
</g>
<g>
</g>
<g>
</g>
<g>
</g>
<g>
</g>
<g>
</g>
<g>
</g>
<g>
</g>
<g>
</g>
</svg>
