<svg enable-background="new 0 0 473.67 473.67" viewBox="0 0 473.67 473.67" xmlns="http://www.w3.org/2000/svg" fill="#E6713C"><path d="m433.294 344.171c23.247-3.74 40.349-23.79 40.376-47.336v-48c0-4.418-3.582-8-8-8h-224.136c-4.418 0-8 3.582-8 8v72h-15.864v-192c.002-1.081-.219-2.151-.648-3.144l-23.352-54.456v-38.4c0-4.418-3.582-8-8-8h-144c-4.418 0-8 3.582-8 8v38.4l-23.352 54.48c-.426.985-.646 2.047-.648 3.12v274.824c-10.984 8.626-12.895 24.523-4.269 35.507 4.802 6.115 12.15 9.681 19.925 9.669h392.344c3.047.017 5.838-1.699 7.2-4.424l13.744-27.576h35.056v-16h-72.296c18.184-13.516 29.784-34.108 31.92-56.664zm.376-87.336h24v40c-.055 14.547-9.914 27.227-24 30.864zm-236.128-136h-23.744l11.872-27.688zm4.128 16v184h-32v-184zm-152-96h128v24h-128zm-2.728 40h126.6l-17.144 40h-126.6zm-21.272 56h128v184h-17c-7.313-.002-14.269 3.157-19.08 8.664-2.048 2.393-3.628 5.15-4.656 8.128l-38.928 11.12c-9.907 2.909-17.071 11.521-18.128 21.792l-30.208 21.576zm-.344 296c-4.025.005-7.597-2.577-8.856-6.4-1.313-3.888.079-8.176 3.424-10.552l38.312-27.368 8.864 44.32zm58.056 0-11.576-57.904c-.926-4.765 1.932-9.45 6.592-10.808l33.824-9.664 10.608 78.376zm55.6 0-11.568-85.432c-.68-5.111 2.911-9.806 8.022-10.486.409-.054.821-.082 1.234-.082h96.872c.068 25.231 12.035 48.952 32.288 64h-64.16v16h35.056l8 16zm281.744-16-8 16h-150.112l-8-16zm-67.192-16h-39.864c-35.403-.044-64.092-28.733-64.136-64.136v-79.864h168.136v79.864c-.039 35.405-28.731 64.096-64.136 64.136z"/><path d="m321.534 368.835c-22.08-.026-39.974-17.92-40-40v-8h-16v8c.04 30.911 25.089 55.96 56 56h8v-16z"/><path d="m265.534 288.835h16v16h-16z"/><path d="m421.67 144.835h-96c-6.627 0-12-5.373-12-12s5.373-12 12-12h36c22.08-.026 39.974-17.92 40-40h-16c0 13.255-10.745 24-24 24h-36c-15.464 0-28 12.536-28 28s12.536 28 28 28h96c6.627 0 12 5.373 12 12s-5.373 12-12 12h-116c-22.08.026-39.974 17.92-40 40h16c0-13.255 10.745-24 24-24h116c15.464 0 28-12.536 28-28s-12.536-28-28-28z"/><path d="m89.67 176.835c-17.673 0-32 14.327-32 32s14.327 32 32 32 32-14.327 32-32-14.327-32-32-32zm0 48c-8.837 0-16-7.163-16-16s7.163-16 16-16 16 7.163 16 16-7.163 16-16 16z"/><path d="m57.67 256.835h64v16h-64z"/><path d="m57.67 288.835h64v16h-64z"/></svg>